<?xml version="1.0" encoding="utf-8"?>
<!-- Generator: Adobe Illustrator 25.2.0, SVG Export Plug-In . SVG Version: 6.00 Build 0)  -->
<svg version="1.1" xmlns="http://www.w3.org/2000/svg" xmlns:xlink="http://www.w3.org/1999/xlink" x="0px" y="0px"
	 viewBox="0 0 24 24" style="enable-background:new 0 0 24 24;" xml:space="preserve">
<style type="text/css">
	.st0{fill:none;}
	.st1{fill:#D6D6D6;}
	.st2{font-family:'MyriadPro-Regular';}
	.st3{font-size:12px;}
	.st4{fill:#FFA85A;}
</style>
<g id="Ebene_1">
	<path class="st0" d="M0,0h24v24H0V0z"/>
	<path class="st1" d="M20,4H4C2.9,4,2,4.9,2,6v12c0,1.1,0.9,2,2,2h16c1.1,0,2-0.9,2-2V6C22,4.9,21.1,4,20,4z M19.6,8.2l-6.5,4.1
		c-0.6,0.4-1.5,0.4-2.1,0L4.4,8.2C4.2,8.1,4,7.8,4,7.5c0-0.7,0.7-1.1,1.3-0.7L12,11l6.7-4.2C19.3,6.5,20,6.9,20,7.5
		C20,7.8,19.9,8.1,19.6,8.2z"/>
	<text transform="matrix(1 0 0 1 23.1943 18.384)" class="st2 st3"> </text>
	<g>
		<path d="M17.4,17.6c-0.2-0.2-1.1-0.8-1.5-1.5c-0.1-0.2-0.2-0.4-0.3-0.5c-0.1-0.2-0.1-0.3-0.1-0.5c0-0.3,0.1-0.6,0.3-0.8
			c0.2-0.2,0.5-0.3,0.8-0.3c0.3,0,0.6,0.1,0.8,0.3c0.2,0.2,0.3,0.4,0.4,0.7c0.1-0.3,0.2-0.5,0.4-0.7c0.2-0.2,0.5-0.3,0.8-0.3
			c0.3,0,0.5,0.1,0.8,0.3c0.2,0.2,0.3,0.4,0.3,0.7c0,0.2-0.1,0.5-0.2,0.8c-0.2,0.6-1.5,1.6-1.7,1.7C17.9,17.9,17.7,17.9,17.4,17.6z"
			/>
	</g>
</g>
<g id="Ebene_2">
	<circle class="st4" cx="17.8" cy="15.8" r="2.8"/>
</g>
</svg>
