<?xml version="1.0" encoding="utf-8"?>
<!-- Generator: Adobe Illustrator 25.2.0, SVG Export Plug-In . SVG Version: 6.00 Build 0)  -->
<svg version="1.1" xmlns="http://www.w3.org/2000/svg" xmlns:xlink="http://www.w3.org/1999/xlink" x="0px" y="0px"
	 viewBox="0 0 395.8 158.9" style="enable-background:new 0 0 395.8 158.9;" xml:space="preserve">
<style type="text/css">
	.st0{fill:#f78166;}
	.st1{display:none;}
	.st2{display:inline;}
</style>
<g id="Ebene_1">
	<g>
		<path class="st0" d="M317.7,6c39.7,0,72,32.3,72,72c0,39.7-32.3,72-72,72H78.1c-39.7,0-72-32.3-72-72c0-39.7,32.3-72,72-72H317.7
			 M317.7,0H78.1C34.9,0,0,34.9,0,78.1v0c0,43.1,34.9,78.1,78.1,78.1h239.6c43.1,0,78.1-34.9,78.1-78.1v0
			C395.8,34.9,360.8,0,317.7,0L317.7,0z"/>
	</g>
</g>
<g id="Ebene_3" class="st1">
	<g class="st2">
		<path class="st0" d="M41.6,43.6h9.8V98h29.3v8.4h-39V43.6z"/>
		<path class="st0" d="M88.6,52c-1.1-1.1-1.6-2.3-1.6-3.8c0-1.5,0.5-2.8,1.6-3.9c1.1-1,2.4-1.6,3.9-1.6c1.5,0,2.8,0.5,3.9,1.6
			c1.1,1,1.6,2.3,1.6,3.9c0,1.5-0.5,2.8-1.6,3.8c-1.1,1.1-2.4,1.6-3.9,1.6C91,53.6,89.7,53.1,88.6,52z M87.7,60.6h9.5v45.8h-9.5
			V60.6z"/>
		<path class="st0" d="M106.4,60.6h9.5v6.9h0.2c1.2-2.3,3-4.2,5.4-5.6c2.4-1.4,5.3-2.2,8.7-2.2c5,0,8.9,1.5,11.7,4.5
			c2.8,3,4.1,7.2,4.1,12.5v29.6h-9.4V78.6c0-3.5-0.8-6.1-2.4-8c-1.6-1.9-4-2.8-7.3-2.8c-2.2,0-4.1,0.5-5.8,1.5
			c-1.6,1-2.9,2.4-3.8,4.1c-0.9,1.8-1.3,3.9-1.3,6.3v26.7h-9.5V60.6z"/>
		<path class="st0" d="M155.1,43.6h9.4v62.8h-9.4V43.6z M162.9,80.1h1.9l18.3-19.5h11.1l-21.5,22.6h-1.4l-8.4,8.4V80.1z M167.8,85.2
			l6.1-6.7l21,28H184L167.8,85.2z"/>
		<path class="st0" d="M204.9,104.5c-3.2-1.9-5.7-4.7-7.4-8.2c-1.7-3.6-2.6-7.7-2.6-12.6v0c0-4.8,0.9-8.9,2.6-12.5
			c1.7-3.6,4.2-6.4,7.4-8.4c3.2-2,6.9-3,11.1-3c4.3,0,8,0.9,11.1,2.9c3.1,1.9,5.5,4.6,7.2,8.1c1.7,3.5,2.5,7.5,2.5,12.1v3.2h-37.2
			v-6.7h32.7l-4.7,6.2v-3.7c0-3.2-0.5-5.9-1.5-8c-1-2.1-2.3-3.7-4-4.8c-1.7-1-3.7-1.6-6-1.6c-2.2,0-4.2,0.6-6,1.7
			c-1.8,1.1-3.2,2.7-4.2,4.9s-1.5,4.8-1.5,7.9v3.7c0,3,0.5,5.5,1.5,7.6c1,2.1,2.4,3.7,4.3,4.8c1.9,1.1,4,1.7,6.6,1.7
			c1.9,0,3.5-0.3,4.9-0.9c1.4-0.6,2.6-1.3,3.6-2.3c0.9-0.9,1.6-2,2-3.2l0.1-0.3h9l-0.1,0.5c-0.4,1.8-1.1,3.5-2.1,5.2
			c-1,1.7-2.4,3.1-4.1,4.5c-1.7,1.3-3.6,2.4-5.9,3.1c-2.3,0.7-4.8,1.1-7.6,1.1C212,107.4,208.1,106.4,204.9,104.5z"/>
		<path class="st0" d="M250.5,104.4c-2.9-2-5.1-4.7-6.7-8.3c-1.6-3.6-2.4-7.8-2.4-12.6v0c0-4.9,0.8-9.1,2.4-12.6
			c1.6-3.5,3.8-6.3,6.7-8.2c2.9-1.9,6.2-2.9,10-2.9c3.2,0,6.1,0.8,8.6,2.3c2.5,1.5,4.5,3.7,5.9,6.4h0.2V43.6h9.5v62.8h-9.5v-7.7H275
			c-1.4,2.7-3.3,4.8-5.7,6.3c-2.5,1.6-5.3,2.3-8.6,2.3C256.8,107.4,253.4,106.4,250.5,104.4z M269.4,97.3c1.8-1.3,3.2-3.1,4.3-5.5
			c1-2.4,1.5-5.1,1.5-8.3v0c0-3.2-0.5-5.9-1.6-8.2c-1-2.3-2.5-4.1-4.3-5.4s-3.9-1.9-6.3-1.9c-2.5,0-4.6,0.6-6.4,1.9
			c-1.8,1.3-3.2,3.1-4.2,5.4c-1,2.3-1.5,5.1-1.5,8.3v0c0,3.2,0.5,6,1.5,8.4c1,2.4,2.4,4.2,4.2,5.4c1.8,1.2,3.9,1.9,6.4,1.9
			C265.5,99.2,267.6,98.6,269.4,97.3z"/>
		<path class="st0" d="M294.9,43.6h9.8v62.8h-9.8V43.6z"/>
		<path class="st0" d="M314.6,60.6h9.5v6.9h0.2c1.2-2.3,3-4.2,5.4-5.6c2.4-1.4,5.3-2.2,8.7-2.2c5,0,8.9,1.5,11.7,4.5
			c2.8,3,4.1,7.2,4.1,12.5v29.6h-9.4V78.6c0-3.5-0.8-6.1-2.4-8c-1.6-1.9-4-2.8-7.3-2.8c-2.2,0-4.1,0.5-5.8,1.5
			c-1.6,1-2.9,2.4-3.8,4.1c-0.9,1.8-1.3,3.9-1.3,6.3v26.7h-9.5V60.6z"/>
	</g>
</g>
<g id="Ebene_2" class="st1">
	<g class="st2">
		<path class="st0" d="M-73.8,121.7c-0.4,0-0.8,0-1-0.1V114c0.2,0,0.5,0,0.7,0s0.4,0,0.7,0c2.3,0,4-0.4,4.9-1.3
			c1-0.9,1.5-2.5,1.5-4.7V60.6h9.4V108c0,4.6-1.2,8.1-3.7,10.4c-2.5,2.3-6.2,3.4-11.3,3.4C-73.1,121.8-73.4,121.8-73.8,121.7z
			 M-66.3,52c-1.1-1.1-1.6-2.3-1.6-3.8c0-1.5,0.5-2.8,1.6-3.9c1.1-1,2.4-1.6,3.9-1.6c1.6,0,2.9,0.5,3.9,1.6c1.1,1,1.6,2.3,1.6,3.9
			c0,1.5-0.5,2.8-1.6,3.8c-1.1,1.1-2.4,1.6-3.9,1.6C-63.9,53.6-65.2,53-66.3,52z"/>
		<path class="st0" d="M-40.2,104.5c-3.3-1.9-5.8-4.7-7.6-8.2c-1.8-3.6-2.7-7.8-2.7-12.7v-0.1c0-4.9,0.9-9.1,2.7-12.6
			c1.8-3.5,4.4-6.3,7.6-8.2c3.3-1.9,7.1-2.9,11.4-2.9c4.4,0,8.2,1,11.4,2.9c3.3,1.9,5.8,4.6,7.6,8.2C-7.9,74.3-7,78.5-7,83.4v0.1
			c0,4.9-0.9,9.2-2.7,12.7c-1.8,3.5-4.3,6.3-7.6,8.2c-3.3,1.9-7.1,2.9-11.4,2.9C-33.1,107.4-37,106.4-40.2,104.5z M-22.3,97.6
			c1.8-1.2,3.2-3.1,4.2-5.4c1-2.4,1.5-5.2,1.5-8.6v-0.1c0-3.3-0.5-6.2-1.5-8.6c-1-2.4-2.4-4.2-4.2-5.4c-1.8-1.2-4-1.9-6.4-1.9
			c-2.4,0-4.5,0.6-6.3,1.9c-1.8,1.2-3.2,3-4.2,5.4c-1,2.4-1.5,5.2-1.5,8.5v0.1c0,3.4,0.5,6.2,1.5,8.6c1,2.4,2.4,4.2,4.2,5.4
			c1.8,1.2,4,1.9,6.4,1.9C-26.3,99.4-24.1,98.8-22.3,97.6z"/>
		<path class="st0" d="M0.2,43.6h9.4v24.6h0.2c1.2-2.7,3-4.7,5.4-6.2s5.3-2.2,8.8-2.2c3.3,0,6.1,0.8,8.6,2.3
			c2.4,1.5,4.3,3.7,5.7,6.4c1.3,2.8,2,6,2,9.7v28.3h-9.4V79.9c0-3.8-0.9-6.8-2.7-8.9c-1.8-2.1-4.4-3.2-7.7-3.2c-2.1,0-4,0.5-5.6,1.5
			s-2.9,2.4-3.8,4.2c-0.9,1.8-1.3,3.9-1.3,6.3v26.5H0.2V43.6z"/>
		<path class="st0" d="M54.4,105.5c-2.3-1.2-4.1-2.8-5.4-4.9c-1.3-2.1-1.9-4.5-1.9-7.2v-0.1c0-4,1.5-7.2,4.5-9.5
			c3-2.3,7.2-3.7,12.6-4l17.3-1v6.6l-16.1,1c-2.8,0.2-5,0.8-6.5,2c-1.5,1.2-2.3,2.7-2.3,4.7v0.1c0,2,0.8,3.6,2.3,4.7
			c1.5,1.2,3.5,1.7,6.1,1.7c2.2,0,4.2-0.5,5.9-1.4c1.8-0.9,3.1-2.1,4.2-3.7c1-1.6,1.5-3.4,1.5-5.3V75.7c0-2.5-0.8-4.5-2.4-5.9
			c-1.6-1.4-3.8-2.2-6.8-2.2c-2.7,0-4.9,0.6-6.5,1.7c-1.6,1.2-2.7,2.7-3.1,4.5l-0.1,0.4h-8.9l0-0.5c0.2-2.6,1.1-5,2.7-7.1
			c1.5-2.1,3.7-3.8,6.4-5c2.7-1.2,6-1.8,9.7-1.8s7,0.6,9.7,1.9c2.7,1.2,4.8,3,6.4,5.3c1.5,2.3,2.3,4.9,2.3,8v31.6h-9.5v-7.2h-0.2
			c-0.9,1.7-2.1,3.1-3.5,4.3c-1.4,1.2-3,2.1-4.8,2.8s-3.7,1-5.7,1C59.3,107.3,56.7,106.7,54.4,105.5z"/>
		<path class="st0" d="M94.7,60.6h9.5v6.9h0.2c1.2-2.3,3-4.2,5.4-5.6c2.4-1.4,5.3-2.2,8.7-2.2c5,0,8.9,1.5,11.7,4.6
			c2.8,3,4.1,7.2,4.1,12.5v29.7h-9.5V78.6c0-3.5-0.8-6.1-2.4-8c-1.6-1.9-4-2.8-7.3-2.8c-2.2,0-4.1,0.5-5.8,1.5
			c-1.6,1-2.9,2.4-3.8,4.1c-0.9,1.8-1.3,3.9-1.3,6.3v26.7h-9.5V60.6z"/>
		<path class="st0" d="M142.8,60.6h9.5v6.9h0.2c1.2-2.3,3-4.2,5.4-5.6c2.4-1.4,5.3-2.2,8.7-2.2c5,0,8.9,1.5,11.7,4.6
			c2.8,3,4.1,7.2,4.1,12.5v29.7h-9.5V78.6c0-3.5-0.8-6.1-2.4-8c-1.6-1.9-4-2.8-7.3-2.8c-2.2,0-4.1,0.5-5.8,1.5
			c-1.6,1-2.9,2.4-3.8,4.1c-0.9,1.8-1.3,3.9-1.3,6.3v26.7h-9.5V60.6z"/>
		<path class="st0" d="M196.5,105.5c-2.3-1.2-4.1-2.8-5.4-4.9c-1.3-2.1-1.9-4.5-1.9-7.2v-0.1c0-4,1.5-7.2,4.5-9.5
			c3-2.3,7.2-3.7,12.6-4l17.3-1v6.6l-16.1,1c-2.8,0.2-5,0.8-6.5,2s-2.3,2.7-2.3,4.7v0.1c0,2,0.8,3.6,2.3,4.7s3.5,1.7,6.1,1.7
			c2.2,0,4.2-0.5,5.9-1.4c1.8-0.9,3.1-2.1,4.2-3.7s1.5-3.4,1.5-5.3V75.7c0-2.5-0.8-4.5-2.4-5.9c-1.6-1.4-3.8-2.2-6.7-2.2
			c-2.7,0-4.9,0.6-6.5,1.7s-2.7,2.7-3.1,4.5l-0.1,0.4H191l0-0.5c0.2-2.6,1.1-5,2.7-7.1c1.5-2.1,3.7-3.8,6.4-5c2.7-1.2,6-1.8,9.7-1.8
			s7,0.6,9.7,1.9c2.7,1.2,4.8,3,6.4,5.3c1.5,2.3,2.3,4.9,2.3,8v31.6h-9.5v-7.2h-0.2c-0.9,1.7-2.1,3.1-3.5,4.3
			c-1.4,1.2-3,2.1-4.8,2.8s-3.7,1-5.7,1C201.4,107.3,198.8,106.7,196.5,105.5z"/>
		<path class="st0" d="M245.1,104.5c-3.3-1.9-5.8-4.7-7.6-8.2c-1.8-3.6-2.7-7.8-2.7-12.7v-0.1c0-4.9,0.9-9.1,2.7-12.6
			c1.8-3.5,4.4-6.3,7.6-8.2c3.3-1.9,7.1-2.9,11.4-2.9c4.4,0,8.2,1,11.4,2.9c3.3,1.9,5.8,4.6,7.6,8.2s2.7,7.8,2.7,12.7v0.1
			c0,4.9-0.9,9.2-2.7,12.7s-4.3,6.3-7.6,8.2c-3.3,1.9-7.1,2.9-11.4,2.9C252.2,107.4,248.3,106.4,245.1,104.5z M262.9,97.6
			c1.8-1.2,3.2-3.1,4.2-5.4c1-2.4,1.5-5.2,1.5-8.6v-0.1c0-3.3-0.5-6.2-1.5-8.6c-1-2.4-2.4-4.2-4.2-5.4c-1.8-1.2-4-1.9-6.4-1.9
			c-2.4,0-4.5,0.6-6.3,1.9c-1.8,1.2-3.2,3-4.2,5.4c-1,2.4-1.5,5.2-1.5,8.5v0.1c0,3.4,0.5,6.2,1.5,8.6c1,2.4,2.4,4.2,4.2,5.4
			s4,1.9,6.4,1.9C259,99.4,261.1,98.8,262.9,97.6z"/>
		<path class="st0" d="M292.4,105.6c-2.7-1.2-4.9-2.8-6.5-4.9s-2.5-4.6-2.8-7.3l0-0.4h9.3l0.1,0.4c0.5,2.1,1.5,3.7,3.1,4.9
			s3.8,1.8,6.7,1.8c1.9,0,3.5-0.2,4.9-0.7c1.3-0.5,2.4-1.2,3.1-2.1c0.7-0.9,1.1-2,1.1-3.2v0c0-1.5-0.5-2.7-1.4-3.6
			c-1-0.9-2.7-1.7-5.1-2.3l-7.5-1.7c-4.4-1-7.6-2.5-9.8-4.7c-2.2-2.1-3.2-4.9-3.2-8.2v0c0-2.8,0.7-5.2,2.2-7.2
			c1.5-2.1,3.6-3.7,6.2-4.8s5.8-1.7,9.3-1.7c3.6,0,6.7,0.6,9.3,1.8c2.6,1.2,4.7,2.9,6.1,5s2.3,4.4,2.4,7v0.5H311l0-0.3
			c-0.3-2-1.2-3.6-2.7-4.9c-1.5-1.3-3.6-1.9-6.3-1.9c-1.7,0-3.2,0.2-4.4,0.7c-1.2,0.5-2.2,1.2-2.9,2.1c-0.7,0.9-1,2-1,3.2v0
			c0,1.4,0.5,2.6,1.6,3.6c1,1,2.8,1.8,5.2,2.3l7.5,1.7c4.7,1.1,8,2.6,10,4.5c2,2,2.9,4.6,2.9,7.9v0c0,2.8-0.8,5.2-2.4,7.4
			c-1.6,2.1-3.8,3.8-6.6,5c-2.8,1.2-6,1.8-9.6,1.8C298.5,107.4,295.2,106.8,292.4,105.6z"/>
		<path class="st0" d="M333.8,104.3c-2.2-2-3.3-5.4-3.3-10V68.1h-6.6v-7.5h6.6V48.7h9.7v11.9h8.6v7.5h-8.6v25.7
			c0,2.3,0.5,3.9,1.5,4.8c1,0.9,2.5,1.3,4.5,1.3c0.5,0,1,0,1.4-0.1c0.4,0,0.8-0.1,1.2-0.1v7.3c-0.6,0.1-1.2,0.2-2.1,0.3
			c-0.8,0.1-1.7,0.1-2.7,0.1C339.3,107.4,336,106.3,333.8,104.3z"/>
		<path class="st0" d="M357.2,105.4c-1.1-1.1-1.7-2.5-1.7-4.1c0-1.6,0.6-2.9,1.7-4c1.1-1.1,2.5-1.7,4.1-1.7c1.6,0,2.9,0.6,4,1.7
			c1.1,1.1,1.7,2.5,1.7,4c0,1.6-0.6,3-1.7,4.1c-1.1,1.1-2.5,1.7-4,1.7C359.7,107.1,358.3,106.5,357.2,105.4z"/>
		<path class="st0" d="M380.1,104.4c-2.9-1.9-5.1-4.7-6.7-8.3c-1.6-3.6-2.4-7.8-2.4-12.6v0c0-4.9,0.8-9.1,2.4-12.6
			c1.6-3.5,3.8-6.3,6.7-8.2c2.9-1.9,6.2-2.9,10-2.9c3.2,0,6.1,0.8,8.6,2.3c2.5,1.5,4.5,3.7,5.9,6.4h0.2V43.6h9.5v62.8h-9.5v-7.8
			h-0.2c-1.4,2.7-3.3,4.8-5.7,6.3c-2.5,1.6-5.3,2.3-8.6,2.3C386.4,107.4,383,106.4,380.1,104.4z M399.1,97.3
			c1.8-1.3,3.2-3.1,4.3-5.5c1-2.4,1.5-5.1,1.5-8.3v0c0-3.2-0.5-5.9-1.6-8.3c-1-2.3-2.5-4.2-4.3-5.4c-1.8-1.3-3.9-1.9-6.3-1.9
			c-2.5,0-4.6,0.6-6.4,1.9c-1.8,1.3-3.2,3.1-4.2,5.4c-1,2.3-1.5,5.1-1.5,8.3v0c0,3.2,0.5,6,1.5,8.4c1,2.4,2.4,4.2,4.2,5.4
			c1.8,1.2,3.9,1.9,6.4,1.9C395.1,99.2,397.2,98.6,399.1,97.3z"/>
		<path class="st0" d="M431.4,104.5c-3.2-1.9-5.7-4.7-7.4-8.2c-1.7-3.6-2.6-7.7-2.6-12.6v0c0-4.8,0.9-8.9,2.6-12.5
			c1.7-3.6,4.2-6.4,7.4-8.4c3.2-2,6.9-3,11.1-3c4.3,0,8,1,11.1,2.9c3.1,1.9,5.5,4.6,7.2,8.1c1.7,3.5,2.5,7.5,2.5,12.1v3.2h-37.2
			v-6.7h32.7l-4.7,6.2v-3.7c0-3.2-0.5-5.9-1.5-8s-2.3-3.7-4-4.8s-3.7-1.6-6-1.6c-2.2,0-4.2,0.6-6,1.7c-1.8,1.1-3.2,2.7-4.2,4.9
			c-1,2.1-1.5,4.8-1.5,7.9v3.7c0,3,0.5,5.5,1.5,7.6c1,2.1,2.4,3.7,4.3,4.8c1.9,1.1,4,1.7,6.6,1.7c1.9,0,3.5-0.3,4.9-0.8
			c1.4-0.6,2.6-1.3,3.5-2.3s1.6-2,2-3.2l0.1-0.3h9l-0.1,0.5c-0.4,1.8-1.1,3.5-2.1,5.2c-1,1.7-2.4,3.1-4.1,4.5
			c-1.7,1.3-3.6,2.4-5.9,3.1s-4.8,1.1-7.6,1.1C438.5,107.4,434.7,106.4,431.4,104.5z"/>
	</g>
</g>
<g id="Ebene_2_Kopie">
	<g>
		<path class="st0" d="M105.5,104.5c-3.2-1.9-5.7-4.7-7.4-8.2s-2.6-7.7-2.6-12.6v0c0-4.8,0.9-8.9,2.6-12.5c1.7-3.6,4.2-6.4,7.4-8.4
			c3.2-2,6.9-3,11.1-3c4.3,0,8,1,11.1,2.9c3.1,1.9,5.5,4.6,7.2,8.1c1.7,3.5,2.5,7.5,2.5,12.1v3.2h-37.2v-6.7h32.7l-4.7,6.2v-3.7
			c0-3.2-0.5-5.9-1.5-8s-2.3-3.7-4-4.8s-3.7-1.6-6-1.6c-2.2,0-4.2,0.6-6,1.7c-1.8,1.1-3.2,2.7-4.2,4.9c-1,2.1-1.5,4.8-1.5,7.9v3.7
			c0,3,0.5,5.5,1.5,7.6c1,2.1,2.4,3.7,4.3,4.8c1.9,1.1,4,1.7,6.6,1.7c1.9,0,3.5-0.3,4.9-0.8c1.4-0.6,2.6-1.3,3.5-2.3s1.6-2,2-3.2
			l0.1-0.3h9l-0.1,0.5c-0.4,1.8-1.1,3.5-2.1,5.2c-1,1.7-2.4,3.1-4.1,4.5c-1.7,1.3-3.6,2.4-5.9,3.1s-4.8,1.1-7.6,1.1
			C112.6,107.4,108.7,106.4,105.5,104.5z"/>
		<path class="st0" d="M144.1,60.6h9.5v7.1h0.2c1-2.4,2.6-4.3,4.8-5.8c2.2-1.5,4.8-2.2,7.8-2.2c2.1,0,4,0.3,5.7,1
			c1.7,0.7,3.2,1.7,4.4,3.1c1.2,1.3,2.1,3,2.7,4.9h0.2c0.8-1.9,1.9-3.5,3.3-4.8c1.4-1.3,3-2.4,4.9-3.1c1.9-0.7,3.9-1.1,6.1-1.1
			c3,0,5.6,0.6,7.9,1.9c2.2,1.3,4,3,5.2,5.3c1.2,2.3,1.9,4.9,1.9,8v31.5h-9.5V77.2c0-3-0.8-5.3-2.3-6.9c-1.5-1.6-3.7-2.5-6.5-2.5
			c-1.9,0-3.5,0.4-4.9,1.3c-1.4,0.8-2.5,2-3.3,3.5c-0.8,1.5-1.2,3.2-1.2,5.1v28.7h-9.3V76.5c0-2.7-0.8-4.8-2.3-6.3
			c-1.6-1.6-3.7-2.3-6.3-2.3c-1.8,0-3.5,0.4-4.9,1.3c-1.4,0.9-2.6,2.1-3.4,3.6c-0.8,1.5-1.2,3.3-1.2,5.3v28.3h-9.5V60.6z"/>
		<path class="st0" d="M222.7,105.5c-2.3-1.2-4.1-2.8-5.4-4.9c-1.3-2.1-1.9-4.5-1.9-7.2v-0.1c0-4,1.5-7.2,4.5-9.5
			c3-2.3,7.2-3.7,12.6-4l17.3-1v6.6l-16.1,1c-2.8,0.2-5,0.8-6.5,2s-2.3,2.7-2.3,4.7v0.1c0,2,0.8,3.6,2.3,4.7s3.5,1.7,6.1,1.7
			c2.2,0,4.2-0.5,5.9-1.4c1.8-0.9,3.1-2.1,4.2-3.7s1.5-3.4,1.5-5.3V75.7c0-2.5-0.8-4.5-2.4-5.9c-1.6-1.4-3.8-2.2-6.7-2.2
			c-2.7,0-4.9,0.6-6.5,1.7s-2.7,2.7-3.1,4.5l-0.1,0.4h-8.9l0-0.5c0.2-2.6,1.1-5,2.7-7.1c1.5-2.1,3.7-3.8,6.4-5
			c2.7-1.2,6-1.8,9.7-1.8s7,0.6,9.7,1.9c2.7,1.2,4.8,3,6.4,5.3c1.5,2.3,2.3,4.9,2.3,8v31.6h-9.5v-7.2h-0.2c-0.9,1.7-2.1,3.1-3.5,4.3
			c-1.4,1.2-3,2.1-4.8,2.8s-3.7,1-5.7,1C227.7,107.3,225,106.7,222.7,105.5z"/>
		<path class="st0" d="M264.3,52c-1.1-1.1-1.6-2.3-1.6-3.8c0-1.5,0.5-2.8,1.6-3.9c1.1-1,2.4-1.6,3.9-1.6c1.5,0,2.8,0.5,3.9,1.6
			s1.6,2.3,1.6,3.9c0,1.5-0.5,2.8-1.6,3.8s-2.4,1.6-3.9,1.6C266.6,53.6,265.4,53,264.3,52z M263.4,60.6h9.5v45.8h-9.5V60.6z"/>
		<path class="st0" d="M282.5,43.6h9.4v62.8h-9.4V43.6z"/>
	</g>
	<g>
	</g>
	<g>
	</g>
	<g>
	</g>
	<g>
	</g>
	<g>
	</g>
	<g>
	</g>
	<g>
	</g>
	<g>
	</g>
	<g>
	</g>
	<g>
	</g>
	<g>
	</g>
	<g>
	</g>
	<g>
	</g>
	<g>
	</g>
	<g>
	</g>
</g>
</svg>
