<?xml version="1.0" encoding="utf-8"?>
<!-- Generator: Adobe Illustrator 25.2.0, SVG Export Plug-In . SVG Version: 6.00 Build 0)  -->
<svg version="1.1" id="Ebene_1" xmlns="http://www.w3.org/2000/svg" xmlns:xlink="http://www.w3.org/1999/xlink" x="0px" y="0px"
	 viewBox="0 0 579.5 158.9" style="enable-background:new 0 0 579.5 158.9;" xml:space="preserve">
<style type="text/css">
	.st0{fill:#F78166;}
	.st1{display:none;}
	.st2{display:inline;}
</style>
<g id="Ebene_1_1_">
	<g>
		<path class="st0" d="M501.4,8.1c38.6,0,69.9,31.4,69.9,69.9c0,38.6-31.4,69.9-69.9,69.9H78.1c-38.6,0-69.9-31.4-69.9-69.9
			c0-38.6,31.4-69.9,69.9-69.9L501.4,8.1 M501.4,0H78.1C34.9,0,0,34.9,0,78.1l0,0c0,43.1,34.9,78.1,78.1,78.1h423.3
			c43.1,0,78.1-34.9,78.1-78.1l0,0C579.4,34.9,544.5,0,501.4,0L501.4,0z"/>
	</g>
</g>
<g id="Ebene_3" class="st1">
	<g class="st2">
		<path class="st0" d="M199.4,43.6h9.8V98h29.3v8.4h-39V43.6H199.4z"/>
		<path class="st0" d="M246.4,52c-1.1-1.1-1.6-2.3-1.6-3.8s0.5-2.8,1.6-3.9c1.1-1,2.4-1.6,3.9-1.6s2.8,0.5,3.9,1.6s1.6,2.3,1.6,3.9
			c0,1.5-0.5,2.8-1.6,3.8c-1.1,1.1-2.4,1.6-3.9,1.6C248.8,53.6,247.5,53.1,246.4,52z M245.6,60.6h9.5v45.8h-9.5V60.6z"/>
		<path class="st0" d="M264.2,60.6h9.5v6.9h0.2c1.2-2.3,3-4.2,5.4-5.6c2.4-1.4,5.3-2.2,8.7-2.2c5,0,8.9,1.5,11.7,4.5
			c2.8,3,4.1,7.2,4.1,12.5v29.6h-9.4V78.6c0-3.5-0.8-6.1-2.4-8s-4-2.8-7.3-2.8c-2.2,0-4.1,0.5-5.8,1.5c-1.6,1-2.9,2.4-3.8,4.1
			c-0.9,1.8-1.3,3.9-1.3,6.3v26.7h-9.5V60.6H264.2z"/>
		<path class="st0" d="M312.9,43.6h9.4v62.8h-9.4V43.6z M320.7,80.1h1.9l18.3-19.5H352l-21.5,22.6h-1.4l-8.4,8.4V80.1z M325.6,85.2
			l6.1-6.7l21,28h-10.9L325.6,85.2z"/>
		<path class="st0" d="M362.7,104.5c-3.2-1.9-5.7-4.7-7.4-8.2c-1.7-3.6-2.6-7.7-2.6-12.6l0,0c0-4.8,0.9-8.9,2.6-12.5
			s4.2-6.4,7.4-8.4c3.2-2,6.9-3,11.1-3c4.3,0,8,0.9,11.1,2.9c3.1,1.9,5.5,4.6,7.2,8.1s2.5,7.5,2.5,12.1v3.2h-37.2v-6.7H390l-4.7,6.2
			v-3.7c0-3.2-0.5-5.9-1.5-8s-2.3-3.7-4-4.8c-1.7-1-3.7-1.6-6-1.6c-2.2,0-4.2,0.6-6,1.7s-3.2,2.7-4.2,4.9c-1,2.1-1.5,4.8-1.5,7.9
			v3.7c0,3,0.5,5.5,1.5,7.6s2.4,3.7,4.3,4.8c1.9,1.1,4,1.7,6.6,1.7c1.9,0,3.5-0.3,4.9-0.9s2.6-1.3,3.6-2.3c0.9-0.9,1.6-2,2-3.2
			l0.1-0.3h9l-0.1,0.5c-0.4,1.8-1.1,3.5-2.1,5.2s-2.4,3.1-4.1,4.5c-1.7,1.3-3.6,2.4-5.9,3.1s-4.8,1.1-7.6,1.1
			C369.8,107.4,366,106.4,362.7,104.5z"/>
		<path class="st0" d="M408.3,104.4c-2.9-2-5.1-4.7-6.7-8.3c-1.6-3.6-2.4-7.8-2.4-12.6l0,0c0-4.9,0.8-9.1,2.4-12.6s3.8-6.3,6.7-8.2
			c2.9-1.9,6.2-2.9,10-2.9c3.2,0,6.1,0.8,8.6,2.3s4.5,3.7,5.9,6.4h0.2V43.6h9.5v62.8H433v-7.7h-0.2c-1.4,2.7-3.3,4.8-5.7,6.3
			c-2.5,1.6-5.3,2.3-8.6,2.3C414.6,107.4,411.2,106.4,408.3,104.4z M427.2,97.3c1.8-1.3,3.2-3.1,4.3-5.5c1-2.4,1.5-5.1,1.5-8.3l0,0
			c0-3.2-0.5-5.9-1.6-8.2c-1-2.3-2.5-4.1-4.3-5.4s-3.9-1.9-6.3-1.9c-2.5,0-4.6,0.6-6.4,1.9s-3.2,3.1-4.2,5.4s-1.5,5.1-1.5,8.3l0,0
			c0,3.2,0.5,6,1.5,8.4s2.4,4.2,4.2,5.4c1.8,1.2,3.9,1.9,6.4,1.9C423.3,99.2,425.4,98.6,427.2,97.3z"/>
		<path class="st0" d="M452.8,43.6h9.8v62.8h-9.8V43.6z"/>
		<path class="st0" d="M472.5,60.6h9.5v6.9h0.2c1.2-2.3,3-4.2,5.4-5.6c2.4-1.4,5.3-2.2,8.7-2.2c5,0,8.9,1.5,11.7,4.5
			c2.8,3,4.1,7.2,4.1,12.5v29.6h-9.4V78.6c0-3.5-0.8-6.1-2.4-8s-4-2.8-7.3-2.8c-2.2,0-4.1,0.5-5.8,1.5c-1.6,1-2.9,2.4-3.8,4.1
			c-0.9,1.8-1.3,3.9-1.3,6.3v26.7h-9.5V60.6H472.5z"/>
	</g>
</g>
<g>
	<path class="st0" d="M95.4,121.8c-0.4,0-0.8,0-1-0.1V114c0.2,0,0.5,0,0.7,0s0.4,0,0.7,0c2.3,0,4-0.4,4.9-1.3c1-0.9,1.5-2.5,1.5-4.7
		V60.7h9.5v47.4c0,4.6-1.2,8.1-3.7,10.4c-2.5,2.3-6.2,3.4-11.3,3.4C96.2,121.8,95.8,121.8,95.4,121.8z M103,52
		c-1.1-1.1-1.6-2.3-1.6-3.8c0-1.5,0.5-2.8,1.6-3.9c1.1-1,2.4-1.6,3.9-1.6c1.6,0,2.9,0.5,3.9,1.6s1.6,2.3,1.6,3.9
		c0,1.5-0.5,2.8-1.6,3.8c-1.1,1.1-2.4,1.6-3.9,1.6C105.3,53.6,104,53.1,103,52z"/>
	<path class="st0" d="M129.1,104.5c-3.3-1.9-5.8-4.7-7.6-8.2c-1.8-3.6-2.7-7.8-2.7-12.7v-0.1c0-4.9,0.9-9.1,2.7-12.6
		c1.8-3.5,4.4-6.3,7.6-8.2c3.3-1.9,7.1-2.9,11.4-2.9c4.4,0,8.2,1,11.4,2.9c3.3,1.9,5.8,4.6,7.6,8.2c1.8,3.5,2.7,7.8,2.7,12.7v0.1
		c0,4.9-0.9,9.2-2.7,12.7c-1.8,3.5-4.3,6.3-7.6,8.2c-3.3,1.9-7.1,2.9-11.4,2.9C136.2,107.4,132.3,106.4,129.1,104.5z M146.9,97.6
		c1.8-1.2,3.2-3.1,4.2-5.4c1-2.4,1.5-5.2,1.5-8.6v-0.1c0-3.3-0.5-6.2-1.5-8.6c-1-2.4-2.4-4.2-4.2-5.4c-1.8-1.2-4-1.9-6.4-1.9
		c-2.4,0-4.5,0.6-6.3,1.9c-1.8,1.2-3.2,3-4.2,5.4c-1,2.4-1.5,5.2-1.5,8.5v0.1c0,3.4,0.5,6.2,1.5,8.6c1,2.4,2.4,4.2,4.2,5.4
		c1.8,1.2,4,1.9,6.4,1.9C143,99.5,145.1,98.9,146.9,97.6z"/>
	<path class="st0" d="M169.5,43.6h9.5v24.6h0.2c1.2-2.7,3-4.7,5.4-6.2c2.4-1.5,5.4-2.2,8.8-2.2c3.3,0,6.1,0.8,8.6,2.3
		c2.4,1.5,4.3,3.7,5.7,6.4c1.4,2.8,2,6,2,9.7v28.3h-9.5V80c0-3.8-0.9-6.8-2.7-8.9c-1.8-2.1-4.4-3.2-7.7-3.2c-2.1,0-4,0.5-5.6,1.5
		c-1.6,1-2.9,2.4-3.8,4.2c-0.9,1.8-1.4,3.9-1.4,6.3v26.5h-9.5V43.6z"/>
	<path class="st0" d="M218.9,76.7h28v8.6h-28V76.7z"/>
	<path class="st0" d="M264.7,104.5c-3.3-1.9-5.8-4.7-7.6-8.2c-1.8-3.6-2.7-7.8-2.7-12.7v-0.1c0-4.9,0.9-9.1,2.7-12.6
		c1.8-3.5,4.4-6.3,7.6-8.2c3.3-1.9,7.1-2.9,11.4-2.9c4.4,0,8.2,1,11.4,2.9c3.3,1.9,5.8,4.6,7.6,8.2c1.8,3.5,2.7,7.8,2.7,12.7v0.1
		c0,4.9-0.9,9.2-2.7,12.7c-1.8,3.5-4.3,6.3-7.6,8.2c-3.3,1.9-7.1,2.9-11.4,2.9C271.8,107.4,268,106.4,264.7,104.5z M282.6,97.6
		c1.8-1.2,3.2-3.1,4.2-5.4c1-2.4,1.5-5.2,1.5-8.6v-0.1c0-3.3-0.5-6.2-1.5-8.6c-1-2.4-2.4-4.2-4.2-5.4c-1.8-1.2-4-1.9-6.4-1.9
		c-2.4,0-4.5,0.6-6.3,1.9c-1.8,1.2-3.2,3-4.2,5.4c-1,2.4-1.5,5.2-1.5,8.5v0.1c0,3.4,0.5,6.2,1.5,8.6c1,2.4,2.4,4.2,4.2,5.4
		c1.8,1.2,4,1.9,6.4,1.9C278.7,99.5,280.8,98.9,282.6,97.6z"/>
	<path class="st0" d="M312.1,105.7c-2.7-1.2-4.9-2.8-6.5-4.9c-1.6-2.1-2.5-4.6-2.8-7.3l0-0.4h9.3l0.1,0.4c0.5,2.1,1.5,3.7,3.1,4.9
		c1.6,1.2,3.8,1.8,6.7,1.8c1.9,0,3.5-0.2,4.9-0.7c1.3-0.5,2.4-1.2,3.1-2.1c0.7-0.9,1.1-2,1.1-3.2v0c0-1.5-0.5-2.7-1.4-3.6
		c-1-0.9-2.7-1.7-5.1-2.3l-7.5-1.7c-4.4-1-7.6-2.5-9.8-4.7c-2.2-2.1-3.2-4.9-3.2-8.2v0c0-2.8,0.7-5.2,2.2-7.3
		c1.5-2.1,3.6-3.7,6.2-4.8c2.7-1.1,5.8-1.7,9.3-1.7c3.6,0,6.7,0.6,9.3,1.8s4.7,2.9,6.1,5c1.5,2.1,2.3,4.5,2.4,7v0.5h-8.8l0-0.3
		c-0.3-2-1.2-3.6-2.7-4.9c-1.5-1.3-3.6-1.9-6.3-1.9c-1.7,0-3.2,0.2-4.4,0.7c-1.2,0.5-2.2,1.2-2.9,2.1c-0.7,0.9-1,2-1,3.2v0
		c0,1.4,0.5,2.6,1.6,3.6s2.8,1.8,5.2,2.3l7.5,1.7c4.7,1.1,8,2.6,10,4.6c2,2,2.9,4.6,2.9,7.9v0c0,2.8-0.8,5.2-2.4,7.4
		c-1.6,2.1-3.8,3.8-6.6,5s-6,1.8-9.6,1.8C318.1,107.4,314.8,106.8,312.1,105.7z"/>
	<path class="st0" d="M353.4,104.3c-2.2-2-3.3-5.4-3.3-10V68.2h-6.6v-7.5h6.6V48.7h9.7v11.9h8.6v7.5h-8.6v25.7
		c0,2.3,0.5,3.9,1.5,4.8c1,0.9,2.5,1.3,4.5,1.3c0.5,0,1,0,1.4-0.1c0.4,0,0.8-0.1,1.2-0.1v7.3c-0.6,0.1-1.2,0.2-2.1,0.3
		c-0.8,0.1-1.7,0.1-2.7,0.1C359,107.4,355.6,106.4,353.4,104.3z"/>
	<path class="st0" d="M376.9,105.5c-1.1-1.1-1.7-2.5-1.7-4.1c0-1.6,0.6-2.9,1.7-4.1c1.1-1.1,2.5-1.7,4.1-1.7c1.6,0,2.9,0.6,4.1,1.7
		c1.1,1.1,1.7,2.5,1.7,4.1c0,1.6-0.6,3-1.7,4.1s-2.5,1.7-4.1,1.7C379.4,107.2,378,106.6,376.9,105.5z"/>
	<path class="st0" d="M399.8,104.5c-2.9-1.9-5.1-4.7-6.7-8.3s-2.4-7.8-2.4-12.7v0c0-4.9,0.8-9.1,2.4-12.6c1.6-3.5,3.8-6.3,6.7-8.2
		c2.9-1.9,6.2-2.9,10-2.9c3.2,0,6.1,0.8,8.6,2.3c2.5,1.5,4.5,3.7,5.9,6.4h0.2V43.6h9.5v62.9h-9.5v-7.8h-0.2
		c-1.4,2.7-3.3,4.8-5.8,6.3c-2.5,1.6-5.3,2.3-8.6,2.3C406.1,107.4,402.7,106.4,399.8,104.5z M418.7,97.3c1.8-1.3,3.2-3.1,4.3-5.5
		c1-2.4,1.5-5.1,1.5-8.3v0c0-3.2-0.5-5.9-1.6-8.3c-1-2.3-2.5-4.2-4.3-5.4c-1.8-1.3-3.9-1.9-6.3-1.9c-2.5,0-4.6,0.6-6.4,1.9
		c-1.8,1.3-3.2,3.1-4.2,5.4c-1,2.3-1.5,5.1-1.5,8.3v0c0,3.2,0.5,6,1.5,8.4c1,2.4,2.4,4.2,4.2,5.4c1.8,1.2,3.9,1.9,6.4,1.9
		C414.8,99.3,416.9,98.6,418.7,97.3z"/>
	<path class="st0" d="M451.1,104.5c-3.2-1.9-5.7-4.7-7.5-8.2c-1.7-3.6-2.6-7.7-2.6-12.6v0c0-4.8,0.9-8.9,2.6-12.5
		c1.7-3.6,4.2-6.4,7.4-8.4c3.2-2,6.9-3,11.2-3c4.3,0,8,1,11.1,2.9c3.1,1.9,5.5,4.6,7.2,8.1c1.7,3.5,2.5,7.5,2.5,12.1V86h-37.2v-6.7
		h32.7l-4.7,6.2v-3.7c0-3.2-0.5-5.9-1.5-8c-1-2.1-2.3-3.7-4.1-4.8c-1.7-1-3.7-1.6-6-1.6c-2.2,0-4.2,0.6-6,1.7
		c-1.8,1.1-3.2,2.7-4.2,4.9c-1,2.1-1.5,4.8-1.5,7.9v3.7c0,3,0.5,5.5,1.5,7.6c1,2.1,2.4,3.7,4.3,4.8c1.9,1.1,4.1,1.7,6.6,1.7
		c1.9,0,3.5-0.3,4.9-0.8c1.4-0.6,2.6-1.3,3.6-2.3c0.9-0.9,1.6-2,2-3.2l0.1-0.3h9l-0.1,0.5c-0.4,1.8-1.1,3.5-2.1,5.2
		c-1,1.7-2.4,3.1-4.1,4.5c-1.7,1.3-3.6,2.4-5.9,3.1s-4.8,1.1-7.6,1.1C458.2,107.4,454.4,106.4,451.1,104.5z"/>
</g>
</svg>
