<?xml version="1.0" encoding="utf-8"?>
<!-- Generator: Adobe Illustrator 25.2.0, SVG Export Plug-In . SVG Version: 6.00 Build 0)  -->
<svg version="1.1" id="Ebene_1" xmlns="http://www.w3.org/2000/svg" xmlns:xlink="http://www.w3.org/1999/xlink" x="0px" y="0px"
	 viewBox="0 0 530.4 156.1" style="enable-background:new 0 0 530.4 156.1;" xml:space="preserve">
<style type="text/css">
	.st0{fill:#6E7CFF;}
</style>
<g>
	<path class="st0" d="M108.9,43.6h9.8V98h29.3v8.4h-39V43.6z"/>
	<path class="st0" d="M155.9,52c-1.1-1.1-1.6-2.3-1.6-3.8c0-1.5,0.5-2.8,1.6-3.9s2.4-1.6,3.9-1.6c1.5,0,2.8,0.5,3.9,1.6
		s1.6,2.3,1.6,3.9c0,1.5-0.5,2.8-1.6,3.8c-1.1,1.1-2.4,1.6-3.9,1.6C158.3,53.6,157,53.1,155.9,52z M155,60.6h9.5v45.8H155V60.6z"/>
	<path class="st0" d="M173.7,60.6h9.5v6.9h0.2c1.2-2.3,3-4.2,5.4-5.6c2.4-1.4,5.3-2.2,8.7-2.2c5,0,8.9,1.5,11.7,4.5
		c2.8,3,4.1,7.2,4.1,12.5v29.6h-9.4V78.6c0-3.5-0.8-6.1-2.4-8c-1.6-1.9-4-2.8-7.3-2.8c-2.2,0-4.1,0.5-5.8,1.5
		c-1.6,1-2.9,2.4-3.8,4.1c-0.9,1.8-1.3,3.9-1.3,6.3v26.7h-9.5V60.6z"/>
	<path class="st0" d="M222.4,43.6h9.4v62.8h-9.4V43.6z M230.2,80.1h1.9l18.3-19.5h11.1L240,83.2h-1.4l-8.4,8.4V80.1z M235.1,85.2
		l6.1-6.7l21,28h-10.9L235.1,85.2z"/>
	<path class="st0" d="M272.2,104.5c-3.2-1.9-5.7-4.7-7.4-8.2c-1.7-3.6-2.6-7.7-2.6-12.6v0c0-4.8,0.9-8.9,2.6-12.5s4.2-6.4,7.4-8.4
		c3.2-2,6.9-3,11.1-3c4.3,0,8,0.9,11.1,2.9c3.1,1.9,5.5,4.6,7.2,8.1c1.7,3.5,2.5,7.5,2.5,12.1v3.2h-37.2v-6.7h32.7l-4.7,6.2v-3.7
		c0-3.2-0.5-5.9-1.5-8c-1-2.1-2.3-3.7-4-4.8c-1.7-1-3.7-1.6-6-1.6c-2.2,0-4.2,0.6-6,1.7s-3.2,2.7-4.2,4.9c-1,2.1-1.5,4.8-1.5,7.9
		v3.7c0,3,0.5,5.5,1.5,7.6c1,2.1,2.4,3.7,4.3,4.8c1.9,1.1,4,1.7,6.6,1.7c1.9,0,3.5-0.3,4.9-0.9c1.4-0.6,2.6-1.3,3.6-2.3
		c0.9-0.9,1.6-2,2-3.2l0.1-0.3h9l-0.1,0.5c-0.4,1.8-1.1,3.5-2.1,5.2c-1,1.7-2.4,3.1-4.1,4.5c-1.7,1.3-3.6,2.4-5.9,3.1
		c-2.3,0.7-4.8,1.1-7.6,1.1C279.3,107.4,275.5,106.4,272.2,104.5z"/>
	<path class="st0" d="M317.8,104.4c-2.9-2-5.1-4.7-6.7-8.3c-1.6-3.6-2.4-7.8-2.4-12.6v0c0-4.9,0.8-9.1,2.4-12.6
		c1.6-3.5,3.8-6.3,6.7-8.2c2.9-1.9,6.2-2.9,10-2.9c3.2,0,6.1,0.8,8.6,2.3c2.5,1.5,4.5,3.7,5.9,6.4h0.2V43.6h9.5v62.8h-9.5v-7.7h-0.2
		c-1.4,2.7-3.3,4.8-5.7,6.3c-2.5,1.6-5.3,2.3-8.6,2.3C324.1,107.4,320.7,106.4,317.8,104.4z M336.7,97.3c1.8-1.3,3.2-3.1,4.3-5.5
		c1-2.4,1.5-5.1,1.5-8.3v0c0-3.2-0.5-5.9-1.6-8.2c-1-2.3-2.5-4.1-4.3-5.4c-1.8-1.3-3.9-1.9-6.3-1.9c-2.5,0-4.6,0.6-6.4,1.9
		c-1.8,1.3-3.2,3.1-4.2,5.4c-1,2.3-1.5,5.1-1.5,8.3v0c0,3.2,0.5,6,1.5,8.4c1,2.4,2.4,4.2,4.2,5.4c1.8,1.2,3.9,1.9,6.4,1.9
		C332.8,99.2,334.9,98.6,336.7,97.3z"/>
	<path class="st0" d="M362.2,43.6h9.8v62.8h-9.8V43.6z"/>
	<path class="st0" d="M382,60.6h9.5v6.9h0.2c1.2-2.3,3-4.2,5.4-5.6c2.4-1.4,5.3-2.2,8.7-2.2c5,0,8.9,1.5,11.7,4.5
		c2.8,3,4.1,7.2,4.1,12.5v29.6H412V78.6c0-3.5-0.8-6.1-2.4-8c-1.6-1.9-4-2.8-7.3-2.8c-2.2,0-4.1,0.5-5.8,1.5c-1.6,1-2.9,2.4-3.8,4.1
		c-0.9,1.8-1.3,3.9-1.3,6.3v26.7H382V60.6z"/>
</g>
<g>
	<path class="st0" d="M452.3,7c39.2,0,71.1,31.9,71.1,71.1c0,39.2-31.9,71.1-71.1,71.1H78.1C38.9,149.1,7,117.2,7,78.1
		C7,38.9,38.9,7,78.1,7H452.3 M452.3,0H78.1C34.9,0,0,34.9,0,78.1v0c0,43.1,34.9,78.1,78.1,78.1h374.3c43.1,0,78.1-34.9,78.1-78.1v0
		C530.4,34.9,495.4,0,452.3,0L452.3,0z"/>
</g>
<g>
</g>
<g>
</g>
<g>
</g>
<g>
</g>
<g>
</g>
<g>
</g>
<g>
</g>
<g>
</g>
<g>
</g>
<g>
</g>
<g>
</g>
<g>
</g>
<g>
</g>
<g>
</g>
<g>
</g>
</svg>
