<?xml version="1.0" encoding="utf-8"?>
<!-- Generator: Adobe Illustrator 25.2.0, SVG Export Plug-In . SVG Version: 6.00 Build 0)  -->
<svg version="1.1" id="Ebene_1" xmlns="http://www.w3.org/2000/svg" xmlns:xlink="http://www.w3.org/1999/xlink" x="0px" y="0px"
	 viewBox="0 0 59.5 17.5" style="enable-background:new 0 0 59.5 17.5;" xml:space="preserve">
<style type="text/css">
	.st0{fill:#6E7CFF;}
</style>
<g>
	<polygon class="st0" points="13.3,4.9 12.2,4.9 12.2,11.9 16.6,11.9 16.6,11 13.3,11 	"/>
	<path class="st0" d="M17.9,4.8c-0.2,0-0.3,0.1-0.4,0.2s-0.2,0.3-0.2,0.4c0,0.2,0.1,0.3,0.2,0.4S17.8,6,17.9,6
		c0.2,0,0.3-0.1,0.4-0.2s0.2-0.3,0.2-0.4c0-0.2-0.1-0.3-0.2-0.4S18.1,4.8,17.9,4.8z"/>
	<rect x="17.4" y="6.8" class="st0" width="1.1" height="5.1"/>
	<path class="st0" d="M22.1,6.7c-0.4,0-0.7,0.1-1,0.2s-0.5,0.4-0.6,0.6h0V6.8h-1.1v5.1h1.1v-3c0-0.3,0-0.5,0.1-0.7s0.2-0.4,0.4-0.5
		s0.4-0.2,0.6-0.2c0.4,0,0.6,0.1,0.8,0.3s0.3,0.5,0.3,0.9v3.1h1.1V8.6c0-0.6-0.2-1.1-0.5-1.4S22.7,6.7,22.1,6.7z"/>
	<polygon class="st0" points="29.3,6.8 28.1,6.8 26,9 26,9 26,4.9 24.9,4.9 24.9,11.9 26,11.9 26,10.1 26.4,9.7 28.2,11.9 
		29.4,11.9 27.2,9 	"/>
	<path class="st0" d="M33,7c-0.3-0.2-0.8-0.3-1.2-0.3c-0.5,0-0.9,0.1-1.2,0.3S29.9,7.6,29.7,8s-0.3,0.9-0.3,1.4v0
		c0,0.5,0.1,1,0.3,1.4c0.2,0.4,0.5,0.7,0.8,0.9c0.4,0.2,0.8,0.3,1.3,0.3c0.3,0,0.6,0,0.8-0.1c0.3-0.1,0.5-0.2,0.7-0.3
		c0.2-0.1,0.3-0.3,0.5-0.5s0.2-0.4,0.2-0.6l0-0.1h-1l0,0c0,0.1-0.1,0.2-0.2,0.4c-0.1,0.1-0.2,0.2-0.4,0.3c-0.2,0.1-0.3,0.1-0.6,0.1
		c-0.3,0-0.5-0.1-0.7-0.2c-0.2-0.1-0.4-0.3-0.5-0.5c-0.1-0.2-0.2-0.5-0.2-0.8h3.6V9.3c0-0.5-0.1-1-0.3-1.4C33.6,7.5,33.4,7.2,33,7z
		 M30.6,8.3c0.1-0.2,0.3-0.4,0.5-0.5s0.4-0.2,0.7-0.2c0.3,0,0.5,0.1,0.7,0.2c0.2,0.1,0.3,0.3,0.5,0.5C33,8.4,33,8.7,33,8.9h-2.6
		C30.5,8.7,30.6,8.5,30.6,8.3z"/>
	<path class="st0" d="M38.4,7.7L38.4,7.7C38.2,7.4,38,7.1,37.7,7c-0.3-0.2-0.6-0.3-1-0.3c-0.4,0-0.8,0.1-1.1,0.3
		c-0.3,0.2-0.6,0.5-0.7,0.9c-0.2,0.4-0.3,0.9-0.3,1.4v0c0,0.5,0.1,1,0.3,1.4c0.2,0.4,0.4,0.7,0.7,0.9c0.3,0.2,0.7,0.3,1.1,0.3
		c0.4,0,0.7-0.1,1-0.3c0.3-0.2,0.5-0.4,0.6-0.7h0v0.9h1.1v-7h-1.1V7.7z M38.4,9.4c0,0.4-0.1,0.7-0.2,0.9c-0.1,0.3-0.3,0.5-0.5,0.6
		c-0.2,0.1-0.4,0.2-0.7,0.2c-0.3,0-0.5-0.1-0.7-0.2c-0.2-0.1-0.4-0.3-0.5-0.6c-0.1-0.3-0.2-0.6-0.2-0.9v0c0-0.4,0.1-0.7,0.2-0.9
		C36,8.2,36.1,8,36.3,7.8c0.2-0.1,0.4-0.2,0.7-0.2c0.3,0,0.5,0.1,0.7,0.2s0.4,0.3,0.5,0.6S38.4,9,38.4,9.4L38.4,9.4z"/>
	<rect x="40.6" y="4.9" class="st0" width="1.1" height="7"/>
	<path class="st0" d="M45.5,6.7c-0.4,0-0.7,0.1-1,0.2s-0.5,0.4-0.6,0.6h0V6.8h-1.1v5.1h1.1v-3c0-0.3,0-0.5,0.1-0.7
		c0.1-0.2,0.2-0.4,0.4-0.5c0.2-0.1,0.4-0.2,0.6-0.2c0.4,0,0.6,0.1,0.8,0.3c0.2,0.2,0.3,0.5,0.3,0.9v3.1h1.1V8.6
		c0-0.6-0.2-1.1-0.5-1.4S46.1,6.7,45.5,6.7z"/>
	<path class="st0" d="M50.7,0h-42C3.9,0,0,3.9,0,8.8c0,4.8,3.9,8.8,8.8,8.8h42c4.8,0,8.8-3.9,8.8-8.8C59.5,3.9,55.6,0,50.7,0z
		 M50.7,17h-42c-4.6,0-8.3-3.7-8.3-8.3c0-4.6,3.7-8.3,8.3-8.3h42c4.6,0,8.3,3.7,8.3,8.3C59,13.3,55.3,17,50.7,17z"/>
</g>
</svg>
