<svg id="Ebene_1" data-name="Ebene 1" xmlns="http://www.w3.org/2000/svg" viewBox="0 0 59.49 17.51"><defs><style>.cls-1{fill:#6e7cff;}</style></defs><path class="cls-1" d="M12.21,4.89h1.1V11h3.28v.95H12.21Z"/><path class="cls-1" d="M17.49,5.83a.58.58,0,0,1-.18-.42A.59.59,0,0,1,17.49,5a.58.58,0,0,1,.43-.18.6.6,0,0,1,.44.18.59.59,0,0,1,.18.44.58.58,0,0,1-.18.42.6.6,0,0,1-.44.18A.58.58,0,0,1,17.49,5.83Zm-.1,1h1.06v5.14H17.39Z"/><path class="cls-1" d="M19.48,6.8h1.07v.78h0a1.51,1.51,0,0,1,.6-.63,1.75,1.75,0,0,1,1-.25,1.67,1.67,0,0,1,1.31.51,2,2,0,0,1,.47,1.4v3.33H22.86V8.82a1.34,1.34,0,0,0-.27-.9,1.08,1.08,0,0,0-.82-.31,1.23,1.23,0,0,0-.65.17,1,1,0,0,0-.42.46,1.58,1.58,0,0,0-.15.71v3H19.48Z"/><path class="cls-1" d="M25,4.89H26v7.05H25ZM25.82,9H26l2-2.19h1.25L26.92,9.33h-.16l-.94.94Zm.55.57.68-.76,2.36,3.14H28.18Z"/><path class="cls-1" d="M30.53,11.72a2.15,2.15,0,0,1-.83-.93,3.12,3.12,0,0,1-.29-1.41h0A3.1,3.1,0,0,1,29.7,8,2.16,2.16,0,0,1,30.52,7,2.53,2.53,0,0,1,33,7a2.22,2.22,0,0,1,.8.91,3,3,0,0,1,.28,1.35v.36H29.93V8.89h3.66l-.52.7V9.18a2.34,2.34,0,0,0-.16-.9,1.23,1.23,0,0,0-.46-.54,1.33,1.33,0,0,0-.67-.17,1.24,1.24,0,0,0-.67.18,1.27,1.27,0,0,0-.47.55,2,2,0,0,0-.17.88v.41a2,2,0,0,0,.16.85,1.23,1.23,0,0,0,.49.54,1.32,1.32,0,0,0,.73.19,1.51,1.51,0,0,0,.55-.09,1.16,1.16,0,0,0,.4-.26.77.77,0,0,0,.22-.35l0,0h1v.05a2.09,2.09,0,0,1-.24.58,1.82,1.82,0,0,1-.46.5,2.08,2.08,0,0,1-.66.35,2.82,2.82,0,0,1-2.15-.19Z"/><path class="cls-1" d="M35.65,11.71a2,2,0,0,1-.75-.92,3.43,3.43,0,0,1-.27-1.42h0A3.43,3.43,0,0,1,34.9,8,2.09,2.09,0,0,1,35.65,7a1.92,1.92,0,0,1,1.12-.33,1.85,1.85,0,0,1,1,.26,1.74,1.74,0,0,1,.65.72h0V4.89h1.07v7.05H38.41v-.87h0a1.69,1.69,0,0,1-.64.71,1.83,1.83,0,0,1-1,.26A2,2,0,0,1,35.65,11.71Zm2.12-.8a1.49,1.49,0,0,0,.48-.61,2.45,2.45,0,0,0,.17-.93h0a2.2,2.2,0,0,0-.18-.93,1.34,1.34,0,0,0-.48-.61,1.12,1.12,0,0,0-.7-.22,1.25,1.25,0,0,0-.72.21,1.43,1.43,0,0,0-.46.61,2.39,2.39,0,0,0-.17.94h0a2.46,2.46,0,0,0,.17.94,1.32,1.32,0,0,0,.46.61,1.25,1.25,0,0,0,.72.21A1.17,1.17,0,0,0,37.77,10.91Z"/><path class="cls-1" d="M40.63,4.89h1.09v7.05H40.63Z"/><path class="cls-1" d="M42.84,6.8h1.07v.78h0a1.51,1.51,0,0,1,.6-.63,1.73,1.73,0,0,1,1-.25,1.67,1.67,0,0,1,1.31.51,2,2,0,0,1,.46,1.4v3.33H46.22V8.82a1.35,1.35,0,0,0-.28-.9,1,1,0,0,0-.81-.31,1.23,1.23,0,0,0-.65.17,1.12,1.12,0,0,0-.43.46,1.73,1.73,0,0,0-.14.71v3H42.84Z"/><path class="cls-1" d="M50.73.5a8.26,8.26,0,1,1,0,16.51h-42A8.26,8.26,0,0,1,8.75.5h42m0-.5h-42A8.75,8.75,0,0,0,0,8.75H0a8.76,8.76,0,0,0,8.75,8.76h42a8.76,8.76,0,0,0,8.76-8.76h0A8.76,8.76,0,0,0,50.73,0Z"/></svg>